<?xml version="1.0" encoding="UTF-8"?>
<!-- Created with Inkscape (http://www.inkscape.org/) -->
<svg width="156.11mm" height="157.16mm" version="1.1" viewBox="0 0 156.11 157.16" xmlns="http://www.w3.org/2000/svg" xmlns:xlink="http://www.w3.org/1999/xlink">
 <defs>
  <linearGradient id="linearGradient125092" x1="1546.5" x2="1128.7" y1="-310.41" y2="-61.246" gradientUnits="userSpaceOnUse">
   <stop stop-color="#009bed" offset="0"/>
   <stop stop-color="#9ae5ff" offset="1"/>
  </linearGradient>
  <linearGradient id="linearGradient127762" x1="1383.9" x2="1564.6" y1="-193.03" y2="253.83" gradientUnits="userSpaceOnUse">
   <stop stop-color="#009bed" offset="0"/>
   <stop stop-color="#8cddfd" offset="1"/>
  </linearGradient>
  <linearGradient id="linearGradient129496" x1="137.86" x2="79.883" y1="63.887" y2="184.12" gradientUnits="userSpaceOnUse">
   <stop stop-color="#004071" offset="0"/>
   <stop stop-color="#009df7" offset="1"/>
  </linearGradient>
 </defs>
 <g transform="translate(-254.19 47.972)">
  <g transform="translate(266.24 -89.284)" style="mix-blend-mode:screen">
   <path transform="matrix(.26458 0 0 .26458 -293.42 132.8)" d="m1270.6-177.12c51.994-20.476 77.194-16.398 139.79-21.43 62.549-5.0275 85.511-25.844 102.39-48.014 22.979-28.028 37.933-53.473 42.3-60.771 16.62-24.489 29.478-27.77 20.178-23.364-19.734 9.3488-44.788 22.786-54.773 28.569-11.446 6.629-24.682 14.688-29.795 17.273-15.213 7.6926-18.599 8.186-56.705 8.2754-36.153 0.0848-39.299 0.45405-58 6.7832-22.594 7.6466-42.302 18.239-65.643 35.281-29.699 21.685-102.37 68.292-141.68 90.863-17.892 10.274-45.624 25.542-66.885 36.824-4.5124 2.3944-9.3647 5.2453-10.781 6.334l-2.5742 1.9785 1.9512 5c1.0735 2.75 4.2571 9.2223 7.0742 14.383 19.224 35.215 50.021 54.733 81.992 57.739 22.889 2.1522 28.493 1.1025 67.438-22.724 11.55-8.8842 32.515-22.174 48.138-46.375 4.2175-12.046 2.0389-28.793-3.0554-36.635-16.76-25.8-79.435-11.415-115.47 13.481 0 0 53.454-47.464 94.104-63.472z" fill="url(#linearGradient125092)" fill-rule="evenodd" style="mix-blend-mode:normal"/>
   <path transform="matrix(.26458 0 0 .26458 -293.42 132.8)" d="m1611.4-345.78c-2.7834-0.16895-6.4109 0.86183-12.445 3.5039-10.522 3.9924-20.035 8.8411-29.127 14.889-3.4669 3.0666-5.7443 5.7604-9.8086 12.074-7.1345 9.277-12.993 20.713-18.367 29.049-1.3123 1.7553-2.9262 4.162-4.5273 6.8438-16.884 25.009-41.415 55.366-66.4 65.576-27.714 12.206-49.932 13.116-96.498 15.99-3.514 0.21687-6.6141 0.48861-9.9336 0.72851-25.8 2.2325-49.977 5.0824-72.947 11.49-15.937 4.779-30.828 11.313-47.342 20.564-24.362 13.648-43.896 27.807-59.535 43.152-10.978 10.772-11.124 11.399-1.3183 5.7207 27.735-16.062 52.296-24.032 74.354-24.127 15.546-0.0667 25.404 3.316 32.168 13.766 10.886 22.208 6.4 35.146-6.9493 49.58-11.878 12.785-37.899 33.706-53.764 43.225-7.8377 4.7027-19.922 9.5146-28.291 11.266-3.6513 0.76396-6.8109 1.9094-7.0234 2.5469-0.2632 0.7896-4.9744 10.154-10.309 20.609-5.153 10.71-46.53 73.41-59.379 89.109-37.001 46.203-36.529 38.082-60.543 66.719 26.926 4.0276 51.824 8.9357 79.603 19.649 16.16 6.232 78.469 45.107 98.144 52.199 13.792 4.9717 44.942 15.764 80.155 18.543 82.679 6.1434 131.64-11.112 157.68-20.203 25.98-9.8774 48.963-24.092 58.88-30.23 31.627-19.576 49.337-37.6 65.966-52.877 1.1399-1.0692 2.3604-2.6266 2.9372-3.6346-48.47 25.039-54.664 29.268-88.416 40.293-46.257 15.839-81.621 3.1075-90.505-1.4921-11.556-5.9836-61.472-27.23-84.555-62.754-21.815-33.393-45.346-128.76 55.807-212.45 7.4988 23.807 17.523 58.392 34.137 77.164 8.4169-67.426 20.368-92.989 43.068-123.89 34.594-43.204 82.502-71.607 104.12-87.712 7.2818-5.425 13.358-40.663 18.524-49.813 2.963-5.2474 9.1615-14.039 14.487-4.5202 2.9305 5.2384 4.4083 26.696 6.0063 27.962 1.1499 0.91105 4.6669-0.92949 7.3532-1.8644-0.2592-0.80443-2.9049-5.8489-2.2568-12.575 1.6486-17.101 1.6855-47.067 0.068-55.318-1.6065-8.1987-5.6217-15.696-9.4727-17.688-1.1781-0.60922-2.3593-0.98454-3.7402-1.0684z" fill="url(#linearGradient127762)" style="mix-blend-mode:normal"/>
   <path d="m115.54 178c-13.967 5.6542-25.257 9.7294-46.289-6.6678-11.189-7.555-12.445-20.471-12.491-25.741 0.0013-5.7059 0.88274-11.367 2.4223-15.557 2.4736-6.7326 8.7221-15.369 15.502-21.426 1.7927-1.6016 2.3714-1.8002 2.5646-0.88003 1.138 5.4188 2.6688 9.9373 4.7453 14.007 1.4898 2.9197 3.5508 6.1009 3.8376 5.9236 0.12343-0.0763 0.30737-1.3028 0.40876-2.7255 1.255-17.609 8.1783-30.225 23.248-42.364 3.3244-2.6778 8.9664-6.7341 12.26-8.8143 3.4045-2.1501 4.0476-3.2323 6.1826-10.403 0.60529-2.033 1.3988-4.3268 1.7633-5.0974 1.1357-2.4008 2.9354-2.7825 3.9419-0.83616 0.24007 0.46426 0.62414 2.3737 0.85347 4.2433 0.38668 3.1523 0.5076 3.151 0.89008 3.0851 1.3097-0.39292 1.7825-0.55447 2.476-0.86013 0.99001-0.51713 1.4834-0.67478 1.7454-0.67478 0.67667 0 1.594 1.3176 3.0392 4.3656 2.4626 5.1935 1.8538 6.8838-6.0034 16.669-3.6467 4.5414-8.278 9.2987-12.408 12.745-2.5536 2.1312-3.3759 2.9854-4.1943 4.3564-0.31587 0.52919-1.829 4.7418-3.3625 9.3615-3.5575 10.717-4.0864 12.041-7.5532 18.913-1.6779 3.3258-3.1683 6.6776-3.5884 8.0698-0.66744 2.212-0.71832 2.7197-0.71587 7.1438 3e-3 5.9876 0.46608 8.8893 2.3531 12.508 3.2517 6.2351 9.866 10.266 21.356 11.852 0.83102 0.1147 1.4311 0.21046 1.8711 0.29082 0.6765 0.12355 0.90918 0.17627 1.3134 0.34336-2.0534 1.4318-11.323 6.1288-16.17 8.1703z" fill="url(#linearGradient129496)" stroke-opacity="0"/>
   <path d="m65.228 77.007c0.21828-0.1376 2.8497-0.73211 5.8476-1.3211 5.353-1.0517 7.7501-1.8022 11.159-3.4934 2.9747-1.4759 6.7787-1.9979 9.2228-1.2656 1.2397 0.37141 1.2837 0.74998 0.1938 1.667-2.7765 2.3363-7.7029 3.2713-22.322 4.2368-1.3097 0.0865-2.8575 0.21785-3.4396 0.29189-0.72481 0.09219-0.93326 0.05577-0.66146-0.11557z" fill="#003969" stroke-width=".26458"/>
  </g>
 </g>
</svg>
